ISO-10303-21;
HEADER;
/*Generated by software containing ST-Developer
 * from STEP Tools, Inc. (www.steptools.com) 
 */
/*OPTION: using custom renumber hook */
/*description */
/*implementation_level */
FILE_DESCRIPTION(('STEP AP242 Edition 2','STEP AP242 Edition 2''CAx-IF Rec.Pracs.---Representation and Presentation of Product Manufa
cturing Information (PMI)---4.0---2014-10-13','STEP AP242 Edition 2''CAx-IF Rec.Pracs.---Representation and Presentation of Product Manufa
cturing Information (PMI)---4.0---2014-10-13''CAx-IF Rec.Pracs.---3D Tessellated Geometry---0.4---2014-09-14','STEP AP242 Edition 2''CAx-IF Rec.Pracs.---Representation and Presentation of Product Manufa
cturing Information (PMI)---4.0---2014-10-13''CAx-IF Rec.Pracs.---3D Tessellated Geometry---0.4---2014-09-14''2;1','STEP AP242 Edition 2''CAx-IF Rec.Pracs.---Representation and Presentation of Product Manufa
cturing Information (PMI)---4.0---2014-10-13''CAx-IF Rec.Pracs.---3D Tessellated Geometry---0.4---2014-09-14''2;1''CAx-IF Rec.Pracs.---User Defined Attributes---1.5---2016-08-15'),'2;1');
/*name */
/*time_stamp */
/*author */
/*organization */
/*preprocessor_version */
/*originating_system */
/*authorisation */
FILE_NAME('/vol/tmp/translate-14212135363787123210/wing - Part 4.step','2026-03-31T23:48:04',(''),(''),'ST-DEVELOPER v20','ONSHAPE BY PTC INC, 1.212','  ');
FILE_SCHEMA(('AP242_MANAGED_MODEL_BASED_3D_ENGINEERING_MIM_LF { 1 0 10303 442 3 1 4 }'));
ENDSEC;
DATA;
#10=SHAPE_REPRESENTATION_RELATIONSHIP('','',#85,#11);
#11=ADVANCED_BREP_SHAPE_REPRESENTATION('',(#83),#306);
#12=B_SPLINE_SURFACE_WITH_KNOTS('',3,1,((#181,#182),(#183,#184),(#185,#186),(#187,#188),(#189,#190),(#191,#192),(#193,#194),(#195,#196),(#197,#198),(#199,#200),(#201,#202),(#203,#204),(#205,#206),(#207,#208),(#209,#210),(#211,#212),(#213,#214),(#215,#216),(#217,#218),(#219,#220),(#221,#222),(#223,#224),(#225,#226),(#227,#228),(#229,#230),(#231,#232),(#233,#234),(#235,#236)),.RULED_SURF.,.F.,.F.,.F.,(4,2,2,2,2,2,2,2,2,2,2,2,2,4),(2,2),(0.377139981457062,0.4375,0.46875,0.47265625,0.4765625,0.484375,0.5,0.5625,0.59375,0.59765625,0.6015625,0.609375,0.625,0.708897955706387),(0.266665839846463,0.766665840226874),.UNSPECIFIED.);
#13=B_SPLINE_SURFACE_WITH_KNOTS('',2,3,((#270,#271,#272,#273),(#274,#275,
#276,#277),(#278,#279,#280,#281)),.UNSPECIFIED.,.F.,.F.,.F.,(3,3),(4,4),(0.,0.954039731812419),(0.0206029463433973,0.213391312023961),.PIECEWISE_BEZIER_KNOTS.);
#14=B_SPLINE_SURFACE_WITH_KNOTS('',2,3,((#293,#294,#295,#296),(#297,#298,
#299,#300),(#301,#302,#303,#304)),.UNSPECIFIED.,.F.,.F.,.F.,(3,3),(4,4),(0.,0.951646382080231),(0.110376954205405,0.303267295513039),.PIECEWISE_BEZIER_KNOTS.);
#15=ORIENTED_EDGE('',*,*,#33,.F.);
#16=ORIENTED_EDGE('',*,*,#34,.T.);
#17=ORIENTED_EDGE('',*,*,#35,.F.);
#18=ORIENTED_EDGE('',*,*,#36,.F.);
#19=ORIENTED_EDGE('',*,*,#37,.F.);
#20=ORIENTED_EDGE('',*,*,#38,.F.);
#21=ORIENTED_EDGE('',*,*,#34,.F.);
#22=ORIENTED_EDGE('',*,*,#39,.F.);
#23=ORIENTED_EDGE('',*,*,#36,.T.);
#24=ORIENTED_EDGE('',*,*,#40,.F.);
#25=ORIENTED_EDGE('',*,*,#41,.T.);
#26=ORIENTED_EDGE('',*,*,#37,.T.);
#27=ORIENTED_EDGE('',*,*,#39,.T.);
#28=ORIENTED_EDGE('',*,*,#33,.T.);
#29=ORIENTED_EDGE('',*,*,#35,.T.);
#30=ORIENTED_EDGE('',*,*,#40,.T.);
#31=ORIENTED_EDGE('',*,*,#38,.T.);
#32=ORIENTED_EDGE('',*,*,#41,.F.);
#33=EDGE_CURVE('',#42,#43,#48,.T.);
#34=EDGE_CURVE('',#42,#44,#49,.T.);
#35=EDGE_CURVE('',#43,#44,#50,.T.);
#36=EDGE_CURVE('',#45,#46,#51,.T.);
#37=EDGE_CURVE('',#47,#45,#52,.T.);
#38=EDGE_CURVE('',#46,#47,#53,.T.);
#39=EDGE_CURVE('',#45,#42,#54,.T.);
#40=EDGE_CURVE('',#44,#46,#55,.T.);
#41=EDGE_CURVE('',#43,#47,#56,.F.);
#42=VERTEX_POINT('',#101);
#43=VERTEX_POINT('',#102);
#44=VERTEX_POINT('',#132);
#45=VERTEX_POINT('',#170);
#46=VERTEX_POINT('',#171);
#47=VERTEX_POINT('',#176);
#48=B_SPLINE_CURVE_WITH_KNOTS('',3,(#97,#98,#99,#100),.UNSPECIFIED.,.F.,.F.,(4,4),(7.55403433818896E-08,0.948349654276011),.UNSPECIFIED.);
#49=B_SPLINE_CURVE_WITH_KNOTS('',3,(#103,#104,#105,#106,#107,#108,#109,#110,#111,#112,#113,#114,#115,#116,#117,#118,#119,#120,#121,#122,#123,#124,#125,#126,#127,#128,#129,#130,#131),.UNSPECIFIED.,.F.,.F.,(4,1,1,1,1,1,1,1,1,1,1,1,1,1,1,1,1,1,1,1,1,1,1,1,1,1,4),(1.14849893284861E-09,0.00271560045883207,0.00543119976916521,0.00814679907949835,0.0108623983898315,0.0135779977001646,0.0149357973553312,0.0162935970104978,0.0176513966656643,0.0190091963208309,0.0196880961484142,0.0203669959759975,0.0210458958035808,0.021724795631164,0.0220642455449557,0.0224036954587473,0.0230825952863306,0.0237614951139139,0.0244403949414972,0.0257981945966637,0.0271559942518303,0.0285137939069969,0.0298715935621635,0.0325871928724966,0.0353027921828297,0.0380183914931629,0.0434495901138291),.UNSPECIFIED.);
#50=B_SPLINE_CURVE_WITH_KNOTS('',3,(#133,#134,#135,#136),.UNSPECIFIED.,.F.,.F.,(4,4),(0.0540284576493964,1.),.UNSPECIFIED.);
#51=B_SPLINE_CURVE_WITH_KNOTS('',3,(#138,#139,#140,#141,#142,#143,#144,#145,#146,#147,#148,#149,#150,#151,#152,#153,#154,#155,#156,#157,#158,#159,#160,#161,#162,#163,#164,#165,#166,#167,#168,#169),.UNSPECIFIED.,.F.,.F.,(4,1,1,1,1,1,1,1,1,1,1,1,1,1,1,1,1,1,1,1,1,1,1,1,1,1,1,1,1,4),(0.,0.00345697629440358,0.00691395258880716,0.0103709288832107,0.0138279051776143,0.0172848814720179,0.0190133696192197,0.0207418577664215,0.0224703459136233,0.0241988340608251,0.025063078134426,0.0259273222080269,0.0263594442448273,0.0267915662816278,0.0272236883184282,0.0276558103552287,0.0280879323920291,0.0285200544288295,0.0293842985024304,0.0302485425760313,0.0311127866496322,0.032841274796834,0.0345697629440358,0.0362982510912376,0.0380267392384394,0.041483715532843,0.0449406918272466,0.0483976681216501,0.0518546444160537,0.0553116207104573),.UNSPECIFIED.);
#52=B_SPLINE_CURVE_WITH_KNOTS('',3,(#172,#173,#174,#175),.UNSPECIFIED.,.F.,.F.,(4,4),(0.0976978158778246,1.),.UNSPECIFIED.);
#53=B_SPLINE_CURVE_WITH_KNOTS('',3,(#177,#178,#179,#180),.UNSPECIFIED.,.F.,.F.,(4,4),(9.62897672213402E-09,0.897744571480523),.UNSPECIFIED.);
#54=B_SPLINE_CURVE_WITH_KNOTS('',3,(#237,#238,#239,#240,#241,#242,#243,#244,#245,#246,#247,#248,#249,#250,#251,#252,#253,#254,#255,#256,#257,#258,#259,#260,#261,#262,#263,#264,#265),.UNSPECIFIED.,.F.,.F.,(4,1,1,1,1,1,1,1,1,1,1,1,1,1,1,1,1,1,1,1,1,1,1,1,1,1,4),(0.,0.0625,0.125,0.1875,0.21875,0.234375,0.25,0.265625,0.28125,0.3125,0.375,0.40625,0.4375,0.46875,0.484375,0.4921875,0.5,0.5078125,0.515625,0.53125,0.5625,0.59375,0.625,0.6875,0.75,0.875,1.),.UNSPECIFIED.);
#55=B_SPLINE_CURVE_WITH_KNOTS('',3,(#266,#267,#268,#269),.UNSPECIFIED.,.F.,.F.,(4,4),(0.,1.),.UNSPECIFIED.);
#56=B_SPLINE_CURVE_WITH_KNOTS('',3,(#282,#283,#284,#285,#286,#287,#288,#289,#290,#291,#292),.UNSPECIFIED.,.F.,.F.,(4,1,1,1,1,1,1,1,4),(0.,0.25,0.375,0.4375,0.5,0.5625,0.625,0.75,1.),.UNSPECIFIED.);
#57=EDGE_LOOP('',(#15,#16,#17));
#58=EDGE_LOOP('',(#18,#19,#20));
#59=EDGE_LOOP('',(#21,#22,#23,#24));
#60=EDGE_LOOP('',(#25,#26,#27,#28));
#61=EDGE_LOOP('',(#29,#30,#31,#32));
#62=FACE_BOUND('',#57,.T.);
#63=FACE_BOUND('',#58,.T.);
#64=FACE_BOUND('',#59,.T.);
#65=FACE_BOUND('',#60,.T.);
#66=FACE_BOUND('',#61,.T.);
#67=PLANE('',#87);
#68=PLANE('',#88);
#69=ADVANCED_FACE('',(#62),#67,.T.);
#70=ADVANCED_FACE('',(#63),#68,.F.);
#71=ADVANCED_FACE('',(#64),#12,.F.);
#72=ADVANCED_FACE('',(#65),#13,.F.);
#73=ADVANCED_FACE('',(#66),#14,.F.);
#74=CLOSED_SHELL('',(#69,#70,#71,#72,#73));
#75=STYLED_ITEM('',(#76),#83);
#76=PRESENTATION_STYLE_ASSIGNMENT((#77));
#77=SURFACE_STYLE_USAGE(.BOTH.,#78);
#78=SURFACE_SIDE_STYLE('',(#79));
#79=SURFACE_STYLE_FILL_AREA(#80);
#80=FILL_AREA_STYLE('',(#81));
#81=FILL_AREA_STYLE_COLOUR('',#82);
#82=COLOUR_RGB('',0.615686274509804,0.811764705882353,0.929411764705882);
#83=MANIFOLD_SOLID_BREP('Part 4',#74);
#84=SHAPE_DEFINITION_REPRESENTATION(#311,#85);
#85=SHAPE_REPRESENTATION('Part 4',(#86),#306);
#86=AXIS2_PLACEMENT_3D('',#95,#89,#90);
#87=AXIS2_PLACEMENT_3D('',#96,#91,#92);
#88=AXIS2_PLACEMENT_3D('',#137,#93,#94);
#89=DIRECTION('',(0.,0.,1.));
#90=DIRECTION('',(1.,0.,0.));
#91=DIRECTION('',(-1.,1.82123199577617E-16,0.));
#92=DIRECTION('',(1.82123199577617E-16,1.,0.));
#93=DIRECTION('',(-1.,0.,0.));
#94=DIRECTION('',(0.,0.,-1.));
#95=CARTESIAN_POINT('',(0.,0.,0.));
#96=CARTESIAN_POINT('',(0.0677331233394738,0.296333858317982,0.0169333333333334));
#97=CARTESIAN_POINT('',(0.0677331233394738,0.27841814898412,0.00589691448473845));
#98=CARTESIAN_POINT('',(0.0677331233394738,0.273686332692363,0.00675597954890987));
#99=CARTESIAN_POINT('',(0.0677331233394738,0.271198224563916,0.00492730927619868));
#100=CARTESIAN_POINT('',(0.0677331233394738,0.270953824598781,0.000410903666604873));
#101=CARTESIAN_POINT('',(0.0677331233394738,0.278418144493762,0.00589688975139787));
#102=CARTESIAN_POINT('',(0.0677331233394738,0.270953824598781,0.000410903666604884));
#103=CARTESIAN_POINT('',(0.0677331233394738,0.278418140002997,0.00589686501811239));
#104=CARTESIAN_POINT('',(0.0677331233394738,0.279309014905595,0.00573511091754839));
#105=CARTESIAN_POINT('',(0.0677331233394738,0.281088960172024,0.00540290066989821));
#106=CARTESIAN_POINT('',(0.0677331233394738,0.283752553095342,0.00487332852896136));
#107=CARTESIAN_POINT('',(0.0677331233394738,0.286407906876342,0.00430533140845996));
#108=CARTESIAN_POINT('',(0.0677331233394738,0.289054236542636,0.00368721760848077));
#109=CARTESIAN_POINT('',(0.0677331233394738,0.29124164960621,0.00311711013303718));
#110=CARTESIAN_POINT('',(0.0677331233394738,0.29297503273196,0.00261075928880133));
#111=CARTESIAN_POINT('',(0.0677331233394738,0.294264128465738,0.00219782755416694));
#112=CARTESIAN_POINT('',(0.0677331233394738,0.295538217287004,0.0017386756587427));
#113=CARTESIAN_POINT('',(0.0677331233394738,0.296580447956306,0.00129841815904756));
#114=CARTESIAN_POINT('',(0.0677331233394738,0.297394162422318,0.000881241421346637));
#115=CARTESIAN_POINT('',(0.0677331233394738,0.297983639511531,0.000515683481532777));
#116=CARTESIAN_POINT('',(0.0677331233394738,0.298509507070434,8.91388109462231E-05));
#117=CARTESIAN_POINT('',(0.0677331233394738,0.298854052410443,-0.000426148825995289));
#118=CARTESIAN_POINT('',(0.0677331233394738,0.298809034329372,-0.000908196917932404));
#119=CARTESIAN_POINT('',(0.0677331233394738,0.29855927283958,-0.00131410534689164));
#120=CARTESIAN_POINT('',(0.0677331233394738,0.29809448783718,-0.00167887449661197));
#121=CARTESIAN_POINT('',(0.0677331233394738,0.297483119079793,-0.00200828862943029));
#122=CARTESIAN_POINT('',(0.067733123339474,0.296633126896967,-0.00236640111166836));
#123=CARTESIAN_POINT('',(0.0677331233394737,0.295527899043666,-0.00272267675137657));
#124=CARTESIAN_POINT('',(0.0677331233394738,0.294190838312998,-0.003067430295537));
#125=CARTESIAN_POINT('',(0.0677331233394738,0.292842638689821,-0.00336021429814265));
#126=CARTESIAN_POINT('',(0.0677331233394738,0.291036095907477,-0.00370108296898668));
#127=CARTESIAN_POINT('',(0.0677331233394738,0.288764831112192,-0.00405785229571193));
#128=CARTESIAN_POINT('',(0.0677331233394738,0.286024895613309,-0.00441410681538962));
#129=CARTESIAN_POINT('',(0.0677331233394738,0.282362634889465,-0.00481774081346583));
#130=CARTESIAN_POINT('',(0.0677331233394738,0.279610393582242,-0.00505868033024934));
#131=CARTESIAN_POINT('',(0.0677331233394738,0.277773661104154,-0.00520079081349803));
#132=CARTESIAN_POINT('',(0.0677331233394738,0.277773661104154,-0.00520079081349802));
#133=CARTESIAN_POINT('',(0.0677331233394738,0.270953824210545,0.000410903644400662));
#134=CARTESIAN_POINT('',(0.0677331233394738,0.271186876283644,-0.00366395968178274));
#135=CARTESIAN_POINT('',(0.0677331233394738,0.273460155281441,-0.00553452489029511));
#136=CARTESIAN_POINT('',(0.0677331233394738,0.277773661203936,-0.00520079198113645));
#137=CARTESIAN_POINT('',(0.194733123339474,0.296333858317982,0.0169333333333334));
#138=CARTESIAN_POINT('',(0.194733123339474,0.278095663418862,0.00600242643484479));
#139=CARTESIAN_POINT('',(0.194733123339474,0.279239554524865,0.00585497197687202));
#140=CARTESIAN_POINT('',(0.194733123339474,0.281525781044001,0.00555102614235622));
#141=CARTESIAN_POINT('',(0.194733123339474,0.284949686910479,0.00506353957698606));
#142=CARTESIAN_POINT('',(0.194733123339474,0.288367031713149,0.00453794476519151));
#143=CARTESIAN_POINT('',(0.194733123339474,0.291776011362907,0.00396373474031293));
#144=CARTESIAN_POINT('',(0.194733123339474,0.294607375448215,0.0034303826931014));
#145=CARTESIAN_POINT('',(0.194733123339474,0.296863644484583,0.00295230466475544));
#146=CARTESIAN_POINT('',(0.194733123339474,0.298549793317984,0.0025589857729681));
#147=CARTESIAN_POINT('',(0.194733123339474,0.300227471197065,0.00211492436568094));
#148=CARTESIAN_POINT('',(0.194733123339474,0.301607377353213,0.00167889272785511));
#149=CARTESIAN_POINT('',(0.194733123339474,0.302682591790474,0.00125363858662051));
#150=CARTESIAN_POINT('',(0.194733123339474,0.303333897850594,0.000936747098327523));
#151=CARTESIAN_POINT('',(0.194733123339474,0.303821216492712,0.000624116641304729));
#152=CARTESIAN_POINT('',(0.194733123339474,0.304152177551157,0.000341566206649574));
#153=CARTESIAN_POINT('',(0.194733123339474,0.304410659116506,-2.79220189982316E-05));
#154=CARTESIAN_POINT('',(0.194733123339474,0.304365561092827,-0.000489594598381215));
#155=CARTESIAN_POINT('',(0.194733123339474,0.304059002896669,-0.00081891781296424));
#156=CARTESIAN_POINT('',(0.194733123339474,0.303587326227017,-0.00114144510789774));
#157=CARTESIAN_POINT('',(0.194733123339474,0.302924832887771,-0.00143558322951925));
#158=CARTESIAN_POINT('',(0.194733123339474,0.302115091223827,-0.00170520956567337));
#159=CARTESIAN_POINT('',(0.194733123339474,0.301014030057237,-0.00200120889908571));
#160=CARTESIAN_POINT('',(0.194733123339474,0.299614140768974,-0.00229302735868899));
#161=CARTESIAN_POINT('',(0.194733123339474,0.297925266033095,-0.00257154030701708));
#162=CARTESIAN_POINT('',(0.194733123339474,0.296231730329981,-0.00280309049138105));
#163=CARTESIAN_POINT('',(0.194733123339474,0.29396873938395,-0.0030667691260374));
#164=CARTESIAN_POINT('',(0.194733123339474,0.291133167144955,-0.00333200441427647));
#165=CARTESIAN_POINT('',(0.194733123339474,0.287723045844774,-0.00358111781712721));
#166=CARTESIAN_POINT('',(0.194733123339474,0.284307360078033,-0.00377742046845882));
#167=CARTESIAN_POINT('',(0.194733123339474,0.280890332995323,-0.0039308755852795));
#168=CARTESIAN_POINT('',(0.194733123339474,0.278611158605207,-0.00400891625157177));
#169=CARTESIAN_POINT('',(0.194733123339474,0.277471351049271,-0.00404258901022381));
#170=CARTESIAN_POINT('',(0.194733123339474,0.278095652572857,0.00600234789104917));
#171=CARTESIAN_POINT('',(0.194733123339474,0.277471351049271,-0.00404258901022381));
#172=CARTESIAN_POINT('',(0.194733123339474,0.271002216561526,0.0010376062562317));
#173=CARTESIAN_POINT('',(0.194733123339474,0.271423104798563,0.00490269436345778));
#174=CARTESIAN_POINT('',(0.194733123339474,0.273787579853672,0.00655758206046508));
#175=CARTESIAN_POINT('',(0.194733123339474,0.278095641726852,0.00600226934725359));
#176=CARTESIAN_POINT('',(0.194733123339474,0.271002216561526,0.00103760625623172));
#177=CARTESIAN_POINT('',(0.194733123339474,0.277471351200412,-0.00404259412671194));
#178=CARTESIAN_POINT('',(0.194733123339474,0.273558685375414,-0.00415817397565596));
#179=CARTESIAN_POINT('',(0.194733123339474,0.271402306799989,-0.00246477388941378));
#180=CARTESIAN_POINT('',(0.194733123339474,0.271002215474135,0.0010376061320146));
#181=CARTESIAN_POINT('',(0.0677331233210015,0.230641568154421,0.0121521149456793));
#182=CARTESIAN_POINT('',(0.194733123417626,0.277481104891206,0.00608120396479511));
#183=CARTESIAN_POINT('',(0.0677331233210015,0.24083237899981,0.011156774309728));
#184=CARTESIAN_POINT('',(0.194733123417626,0.283790505942447,0.00527693837263165));
#185=CARTESIAN_POINT('',(0.0677331233210015,0.250719171958178,0.0100189910473716));
#186=CARTESIAN_POINT('',(0.194733123417626,0.289397773611596,0.00442444010287277));
#187=CARTESIAN_POINT('',(0.0677331233210015,0.264230944762612,0.00819131431025268));
#188=CARTESIAN_POINT('',(0.194733123417626,0.296091247903689,0.00313722986892224));
#189=CARTESIAN_POINT('',(0.0677331233210015,0.268576285438492,0.00755004968191647));
#190=CARTESIAN_POINT('',(0.194733123417626,0.298053661086423,0.00269931115087909));
#191=CARTESIAN_POINT('',(0.0677331233210015,0.273061843640826,0.00682045923293774));
#192=CARTESIAN_POINT('',(0.194733123417626,0.29982313495315,0.00221618766375816));
#193=CARTESIAN_POINT('',(0.0677331233210015,0.273554641863697,0.00673928020826265));
#194=CARTESIAN_POINT('',(0.194733123417626,0.300013654742969,0.00216263977002243));
#195=CARTESIAN_POINT('',(0.0677331233210015,0.274528679134095,0.00657673638646672));
#196=CARTESIAN_POINT('',(0.194733123417626,0.30038226005427,0.00205583710203216));
#197=CARTESIAN_POINT('',(0.0677331233210015,0.275009922994895,0.00649537141708348));
#198=CARTESIAN_POINT('',(0.194733123417626,0.300560359413933,0.00200258183252229));
#199=CARTESIAN_POINT('',(0.0677331233210015,0.27643594121133,0.00625105326633544));
#200=CARTESIAN_POINT('',(0.194733123417626,0.30107611663023,0.00184328012522385));
#201=CARTESIAN_POINT('',(0.0677331233210015,0.277363002201002,0.00608787684237229));
#202=CARTESIAN_POINT('',(0.194733123417626,0.301395233624169,0.00173769778866646));
#203=CARTESIAN_POINT('',(0.0677331233210015,0.280070219364068,0.00559790206294918));
#204=CARTESIAN_POINT('',(0.194733123417626,0.302278973357368,0.00142301444612207));
#205=CARTESIAN_POINT('',(0.0677331233210015,0.281776409731508,0.00527065819995551));
#206=CARTESIAN_POINT('',(0.194733123417626,0.302769984848006,0.00121597710726288));
#207=CARTESIAN_POINT('',(0.0677331233210015,0.289772758301022,0.00363743500622491));
#208=CARTESIAN_POINT('',(0.194733123417626,0.304741663339093,0.000197311689860261));
#209=CARTESIAN_POINT('',(0.0677331233210015,0.294459106700031,0.00234044403920106));
#210=CARTESIAN_POINT('',(0.194733123417626,0.30477219345323,-0.000564752558003116));
#211=CARTESIAN_POINT('',(0.0677331233210015,0.298125774035914,0.000523889462681786));
#212=CARTESIAN_POINT('',(0.194733123417626,0.302639133357396,-0.00157548767671592));
#213=CARTESIAN_POINT('',(0.0677331233210015,0.298787520604104,-6.01400838218873E-05));
#214=CARTESIAN_POINT('',(0.194733123417626,0.301564970780945,-0.00189033917410647));
#215=CARTESIAN_POINT('',(0.0677331233210015,0.298826753921163,-0.00068225948862836));
#216=CARTESIAN_POINT('',(0.194733123417626,0.299961255371529,-0.00221475508084347));
#217=CARTESIAN_POINT('',(0.0677331233210015,0.298821313235369,-0.000750898751640888));
#218=CARTESIAN_POINT('',(0.194733123417626,0.29977757312551,-0.0022503874506083));
#219=CARTESIAN_POINT('',(0.0677331233210015,0.298790604669899,-0.000887171031249342));
#220=CARTESIAN_POINT('',(0.194733123417626,0.299399281559541,-0.00232080763906607));
#221=CARTESIAN_POINT('',(0.0677331233210015,0.298765367046322,-0.000954805249193448));
#222=CARTESIAN_POINT('',(0.194733123417626,0.299204681866554,-0.00235559584000707));
#223=CARTESIAN_POINT('',(0.0677331233210015,0.298660478210702,-0.00115618047484065));
#224=CARTESIAN_POINT('',(0.194733123417626,0.298604864706377,-0.00245867975938874));
#225=CARTESIAN_POINT('',(0.0677331233210015,0.298551651033775,-0.00128839405435865));
#226=CARTESIAN_POINT('',(0.194733123417626,0.298183629157967,-0.00252569479438803));
#227=CARTESIAN_POINT('',(0.0677331233210015,0.298112258104594,-0.00167875177933453));
#228=CARTESIAN_POINT('',(0.194733123417626,0.296858599378175,-0.00272149713699859));
#229=CARTESIAN_POINT('',(0.0677331233210015,0.297668780953942,-0.00193061291121426));
#230=CARTESIAN_POINT('',(0.194733123417626,0.295893482012228,-0.00284504168222254));
#231=CARTESIAN_POINT('',(0.0677331233210015,0.293949568594935,-0.00347853178472306));
#232=CARTESIAN_POINT('',(0.194733123417626,0.289272097977116,-0.00358539131945156));
#233=CARTESIAN_POINT('',(0.0677331233210015,0.28676535054827,-0.00452857600343554));
#234=CARTESIAN_POINT('',(0.194733123417626,0.281544271517629,-0.00399873848496317));
#235=CARTESIAN_POINT('',(0.0677331233210015,0.277097825601647,-0.00525222482087844));
#236=CARTESIAN_POINT('',(0.194733123417626,0.272805378391353,-0.00415176684697988));
#237=CARTESIAN_POINT('',(0.194733123417626,0.278095661999961,0.0060024266177108));
#238=CARTESIAN_POINT('',(0.192122999760063,0.278103505327809,0.0060027126026639));
#239=CARTESIAN_POINT('',(0.186884853236682,0.278119091924952,0.00600253955163735));
#240=CARTESIAN_POINT('',(0.178972113334198,0.278142740613849,0.00599998771126369));
#241=CARTESIAN_POINT('',(0.172336452882574,0.278162723972124,0.00599604186057672));
#242=CARTESIAN_POINT('',(0.167660821790794,0.278176727948638,0.00599242615058918));
#243=CARTESIAN_POINT('',(0.164993027536714,0.278184655725059,0.00599015089088366));
#244=CARTESIAN_POINT('',(0.162958412898511,0.278190655893398,0.0059883120119645));
#245=CARTESIAN_POINT('',(0.161036512159402,0.278196274227357,0.00598648627542932));
#246=CARTESIAN_POINT('',(0.158426168495757,0.278203856543522,0.00598389441768979));
#247=CARTESIAN_POINT('',(0.153859609726444,0.278217005560943,0.00597907243386798));
#248=CARTESIAN_POINT('',(0.148591895052939,0.278231988385851,0.00597292107521526));
#249=CARTESIAN_POINT('',(0.143287148173893,0.278246907713309,0.00596630014185899));
#250=CARTESIAN_POINT('',(0.139286834713759,0.278258047743376,0.0059611448845019));
#251=CARTESIAN_POINT('',(0.135940269983681,0.27826724367301,0.0059567408412224));
#252=CARTESIAN_POINT('',(0.133581450703746,0.278273635026644,0.00595361375692764));
#253=CARTESIAN_POINT('',(0.132242552509026,0.278277232907082,0.00595183619065079));
#254=CARTESIAN_POINT('',(0.131204666154951,0.278280005974311,0.00595045766967943));
#255=CARTESIAN_POINT('',(0.13028956301955,0.278282430588044,0.00594924358192072));
#256=CARTESIAN_POINT('',(0.129023884393866,0.27828575087188,0.00594756812421685));
#257=CARTESIAN_POINT('',(0.126823518567236,0.278291442779804,0.00594466605438075));
#258=CARTESIAN_POINT('',(0.123653441454945,0.278299439633927,0.00594052464132184));
#259=CARTESIAN_POINT('',(0.119828068296228,0.278308831094249,0.00593562161255367));
#260=CARTESIAN_POINT('',(0.114691584353196,0.278321168778136,0.00592920910417986));
#261=CARTESIAN_POINT('',(0.108207008793987,0.278336330032215,0.00592152351118556));
#262=CARTESIAN_POINT('',(0.09769376044863,0.278360246898671,0.00591036982906405));
#263=CARTESIAN_POINT('',(0.0842942577146181,0.278388906198615,0.00589950315504161));
#264=CARTESIAN_POINT('',(0.0732993737825174,0.278409449569799,0.00589636421291641));
#265=CARTESIAN_POINT('',(0.0677331233210015,0.278418141133322,0.00589686481288877));
#266=CARTESIAN_POINT('',(0.0677331233266215,0.277773661113548,-0.00520079081291253));
#267=CARTESIAN_POINT('',(0.106720177085631,0.277701152741188,-0.00477748397761652));
#268=CARTESIAN_POINT('',(0.149053510410898,0.277603718172133,-0.00436948745226362));
#269=CARTESIAN_POINT('',(0.194733123302423,0.277471351175164,-0.00404258900677293));
#270=CARTESIAN_POINT('',(0.195497606482707,0.278093349173539,0.00600220726042016));
#271=CARTESIAN_POINT('',(0.152644851938094,0.278221840008817,0.00600638801601237));
#272=CARTESIAN_POINT('',(0.10980223351978,0.278353328080267,0.0058922985367917));
#273=CARTESIAN_POINT('',(0.0669713072120175,0.278419330970704,0.00589698516240282));
#274=CARTESIAN_POINT('',(0.195498030977878,0.271262910439926,0.0068801238659317));
#275=CARTESIAN_POINT('',(0.152643799157843,0.271268815927829,0.00704196812863238));
#276=CARTESIAN_POINT('',(0.109800395334742,0.271274859130769,0.00710103429945618));
#277=CARTESIAN_POINT('',(0.0669717952994616,0.27127789264761,0.00719491010780658));
#278=CARTESIAN_POINT('',(0.195494837744973,0.270948981641852,0.000350349712121814));
#279=CARTESIAN_POINT('',(0.152651858342661,0.270949253060334,0.000384139231781518));
#280=CARTESIAN_POINT('',(0.109809879126869,0.270949530806455,0.000305986498140994));
#281=CARTESIAN_POINT('',(0.0669691979863045,0.270949670227991,0.000329730697023948));
#282=CARTESIAN_POINT('',(0.19473312333948,0.271002216647181,0.00103760625498015));
#283=CARTESIAN_POINT('',(0.184160508863866,0.270997310294373,0.00100100559884399));
#284=CARTESIAN_POINT('',(0.168296457314463,0.270990370754638,0.000935282033204507));
#285=CARTESIAN_POINT('',(0.149764133097435,0.270982982628899,0.000847827895096221));
#286=CARTESIAN_POINT('',(0.139184662927631,0.270978961265794,0.000795991796655754));
#287=CARTESIAN_POINT('',(0.131207489545015,0.270976045067237,0.000756453285398529));
#288=CARTESIAN_POINT('',(0.123383213796951,0.270973228347441,0.000716699366861577));
#289=CARTESIAN_POINT('',(0.112860764016795,0.270969420202548,0.000661184180544612));
#290=CARTESIAN_POINT('',(0.0943986102390763,0.270962788251728,0.000560079694160216));
#291=CARTESIAN_POINT('',(0.0784330106921418,0.270957269896614,0.000469553690660266));
#292=CARTESIAN_POINT('',(0.0677331233398687,0.270953824606514,0.000410903597539493));
#293=CARTESIAN_POINT('',(0.0669681170257014,0.277775081531308,-0.0052091048139588));
#294=CARTESIAN_POINT('',(0.109823717642931,0.277695650131784,-0.00474303052844002));
#295=CARTESIAN_POINT('',(0.152678335490232,0.277593491069507,-0.0043424462047305));
#296=CARTESIAN_POINT('',(0.195532129872492,0.277469033404598,-0.00403688596649056));
#297=CARTESIAN_POINT('',(0.0669736827004641,0.271264656212798,-0.00571422029895316));
#298=CARTESIAN_POINT('',(0.109827798275547,0.271260815428181,-0.00516010294072534));
#299=CARTESIAN_POINT('',(0.152680832928517,0.271255875673923,-0.00464936434691472));
#300=CARTESIAN_POINT('',(0.195533439738039,0.271249857679379,-0.00421831760289077));
#301=CARTESIAN_POINT('',(0.0669054746637741,0.270949853593067,0.000475222359459316));
#302=CARTESIAN_POINT('',(0.109766651774411,0.270949667877763,0.000955465129016848));
#303=CARTESIAN_POINT('',(0.152628397167886,0.270949429023064,0.0013726915558681));
#304=CARTESIAN_POINT('',(0.195490787986935,0.270949138030473,0.00169372941335387));
#305=MECHANICAL_DESIGN_GEOMETRIC_PRESENTATION_REPRESENTATION('',(#75),#306);
#306=(
GEOMETRIC_REPRESENTATION_CONTEXT(3)
GLOBAL_UNCERTAINTY_ASSIGNED_CONTEXT((#307))
GLOBAL_UNIT_ASSIGNED_CONTEXT((#310,#309,#308))
REPRESENTATION_CONTEXT('Part 4','TOP_LEVEL_ASSEMBLY_PART')
);
#307=UNCERTAINTY_MEASURE_WITH_UNIT(LENGTH_MEASURE(2.E-05),#310,'DISTANCE_ACCURACY_VALUE','Maximum Tolerance applied to model');
#308=(
NAMED_UNIT(*)
SI_UNIT($,.STERADIAN.)
SOLID_ANGLE_UNIT()
);
#309=(
NAMED_UNIT(*)
PLANE_ANGLE_UNIT()
SI_UNIT($,.RADIAN.)
);
#310=(
LENGTH_UNIT()
NAMED_UNIT(*)
SI_UNIT($,.METRE.)
);
#311=PRODUCT_DEFINITION_SHAPE('','',#312);
#312=PRODUCT_DEFINITION('','',#314,#313);
#313=PRODUCT_DEFINITION_CONTEXT('',#320,'design');
#314=PRODUCT_DEFINITION_FORMATION_WITH_SPECIFIED_SOURCE('','',#316,.NOT_KNOWN.);
#315=PRODUCT_RELATED_PRODUCT_CATEGORY('','',(#316));
#316=PRODUCT('Part 4','Part 4','Part 4',(#318));
#317=PRODUCT_CATEGORY('','');
#318=PRODUCT_CONTEXT('',#320,'mechanical');
#319=APPLICATION_PROTOCOL_DEFINITION('international standard','ap242_managed_model_based_3d_engineering',2020,#320);
#320=APPLICATION_CONTEXT('managed model based 3d engineering');
ENDSEC;
END-ISO-10303-21;
